<?xml version="1.0" standalone="no"?>
<!DOCTYPE svg PUBLIC "-//W3C//DTD SVG 20010904//EN"
 "http://www.w3.org/TR/2001/REC-SVG-20010904/DTD/svg10.dtd">
<svg version="1.0" xmlns="http://www.w3.org/2000/svg"
 width="429.000000pt" height="658.000000pt" viewBox="0 0 429.000000 658.000000"
 preserveAspectRatio="xMidYMid meet">

<g transform="translate(0.000000,658.000000) scale(0.100000,-0.100000)"
fill="#000000" stroke="none">
<path d="M2103 6520 c-125 -26 -181 -106 -204 -292 -17 -139 1 -634 37 -998
l6 -65 -45 61 c-227 308 -660 255 -823 -101 -143 -313 21 -699 331 -780 268
-69 532 120 592 424 16 81 16 96 -10 440 -41 533 -50 719 -44 896 6 195 27
275 82 324 20 17 37 31 39 31 2 0 28 5 57 11 30 5 88 7 130 4 l77 -7 -32 -51
c-63 -102 -32 -233 67 -278 23 -10 57 -19 75 -19 49 0 108 35 139 82 24 35 28
52 28 108 0 119 -59 176 -205 199 -99 15 -250 21 -297 11z"/>
<path d="M285 3888 c-3 -7 -4 -875 -3 -1928 3 -1907 3 -1915 23 -1915 20 0 20
8 25 1872 l5 1872 542 -817 c366 -552 547 -817 559 -817 12 0 154 233 481 790
255 435 468 797 473 805 6 9 9 -695 10 -1804 0 -1117 4 -1824 9 -1829 5 -5 17
-7 25 -4 14 6 16 107 16 1002 l0 995 680 0 680 0 2 -998 c3 -989 3 -997 23
-997 20 0 20 7 20 1875 0 1868 0 1875 -20 1875 -20 0 -20 -8 -23 -852 l-2
-853 -680 0 -680 0 -2 853 -3 852 -23 0 c-21 0 -84 -103 -505 -821 l-482 -822
-508 767 c-279 421 -529 797 -555 836 -46 68 -77 90 -87 63z"/>
</g>
</svg>
